{
  "accessors": [
    {
      "bufferView": 2,
      "componentType": 5126,
      "count": 145,
      "max": [
        3.8519809246063232,
        2.4309499263763428,
        3.8519809246063232
      ],
      "min": [
        -3.8519809246063232,
        1.0,
        -3.8519809246063232
      ],
      "type": "VEC3"
    },
    {
      "bufferView": 2,
      "byteOffset": 1740,
      "componentType": 5126,
      "count": 145,
      "max": [
        0.9262655973434448,
        1.0,
        0.9262655973434448
      ],
      "min": [
        -0.9262655973434448,
        0.37672996520996094,
        -0.9262655973434448
      ],
      "type": "VEC3"
    },
    {
      "bufferView": 1,
      "componentType": 5126,
      "count": 145,
      "max": [
        1.5443557500839233,
        0.8589555025100708
      ],
      "min": [
        1.0464184284210205,
        0.3606666326522827
      ],
      "type": "VEC2"
    },
    {
      "bufferView": 0,
      "componentType": 5125,
      "count": 792,
      "type": "SCALAR"
    },
    {
      "bufferView": 2,
      "byteOffset": 3480,
      "componentType": 5126,
      "count": 308,
      "max": [
        5.222109317779541,
        9.527034759521484,
        4.687100887298584
      ],
      "min": [
        -4.687100887298584,
        0.02154129184782505,
        -4.687100887298584
      ],
      "type": "VEC3"
    },
    {
      "bufferView": 2,
      "byteOffset": 7176,
      "componentType": 5126,
      "count": 308,
      "max": [
        0.966602087020874,
        0.9976488947868347,
        0.9409908056259155
      ],
      "min": [
        -0.9635869860649109,
        -0.9626798033714294,
        -0.9409908056259155
      ],
      "type": "VEC3"
    },
    {
      "bufferView": 1,
      "byteOffset": 1160,
      "componentType": 5126,
      "count": 308,
      "max": [
        0.9604753851890564,
        0.9631843566894531
      ],
      "min": [
        0.03483995795249939,
        0.010658510029315948
      ],
      "type": "VEC2"
    },
    {
      "bufferView": 0,
      "byteOffset": 3168,
      "componentType": 5125,
      "count": 804,
      "type": "SCALAR"
    },
    {
      "bufferView": 2,
      "byteOffset": 10872,
      "componentType": 5126,
      "count": 244,
      "max": [
        5.14554500579834,
        9.527034759521484,
        5.328338623046875
      ],
      "min": [
        -5.328338623046875,
        1.800545334815979,
        -5.328338623046875
      ],
      "type": "VEC3"
    },
    {
      "bufferView": 2,
      "byteOffset": 13800,
      "componentType": 5126,
      "count": 244,
      "max": [
        0.9636663794517517,
        0.9976490139961243,
        0.9995167255401611
      ],
      "min": [
        -0.9995166659355164,
        -0.389691561460495,
        -0.9995166659355164
      ],
      "type": "VEC3"
    },
    {
      "bufferView": 1,
      "byteOffset": 3624,
      "componentType": 5126,
      "count": 244,
      "max": [
        0.9894755482673645,
        0.8341345191001892
      ],
      "min": [
        0.0034412285313010216,
        0.22077442705631256
      ],
      "type": "VEC2"
    },
    {
      "bufferView": 0,
      "byteOffset": 6384,
      "componentType": 5125,
      "count": 1200,
      "type": "SCALAR"
    },
    {
      "bufferView": 2,
      "byteOffset": 16728,
      "componentType": 5126,
      "count": 121,
      "max": [
        2.8099710941314697,
        0.02154129184782505,
        2.8099710941314697
      ],
      "min": [
        -2.8099710941314697,
        0.0,
        -2.8099710941314697
      ],
      "type": "VEC3"
    },
    {
      "bufferView": 2,
      "byteOffset": 18180,
      "componentType": 5126,
      "count": 121,
      "max": [
        0.27064332365989685,
        -0.9626451730728149,
        0.2706432342529297
      ],
      "min": [
        -0.27064332365989685,
        -1.0,
        -0.2706432342529297
      ],
      "type": "VEC3"
    },
    {
      "bufferView": 1,
      "byteOffset": 5576,
      "componentType": 5126,
      "count": 121,
      "max": [
        1.8142614364624023,
        0.15794412791728973
      ],
      "min": [
        1.4769312143325806,
        -0.17938342690467834
      ],
      "type": "VEC2"
    },
    {
      "bufferView": 0,
      "byteOffset": 11184,
      "componentType": 5125,
      "count": 648,
      "type": "SCALAR"
    },
    {
      "bufferView": 2,
      "byteOffset": 19632,
      "componentType": 5126,
      "count": 225,
      "max": [
        4.422844409942627,
        9.37238597869873,
        4.422844409942627
      ],
      "min": [
        -4.422844409942627,
        2.4309499263763428,
        -4.422844409942627
      ],
      "type": "VEC3"
    },
    {
      "bufferView": 2,
      "byteOffset": 22332,
      "componentType": 5126,
      "count": 225,
      "max": [
        0.9999603033065796,
        0.3768715560436249,
        0.9999602437019348
      ],
      "min": [
        -0.9999603033065796,
        -0.21891124546527863,
        -0.9999602437019348
      ],
      "type": "VEC3"
    },
    {
      "bufferView": 1,
      "byteOffset": 6544,
      "componentType": 5126,
      "count": 225,
      "max": [
        1.0990864038467407,
        1.4915467500686646
      ],
      "min": [
        0.16794459521770477,
        1.21183180809021
      ],
      "type": "VEC2"
    },
    {
      "bufferView": 0,
      "byteOffset": 13776,
      "componentType": 5125,
      "count": 1152,
      "type": "SCALAR"
    },
    {
      "bufferView": 2,
      "byteOffset": 25032,
      "componentType": 5126,
      "count": 402,
      "max": [
        9.776972770690918,
        8.929101943969727,
        1.2729482650756836
      ],
      "min": [
        4.605331897735596,
        1.800545334815979,
        -1.2615667581558228
      ],
      "type": "VEC3"
    },
    {
      "bufferView": 2,
      "byteOffset": 29856,
      "componentType": 5126,
      "count": 402,
      "max": [
        0.999665379524231,
        0.9993371367454529,
        0.9490850567817688
      ],
      "min": [
        -0.9944620728492737,
        -0.9994038939476013,
        -0.9964627623558044
      ],
      "type": "VEC3"
    },
    {
      "bufferView": 1,
      "byteOffset": 8344,
      "componentType": 5126,
      "count": 402,
      "max": [
        0.6149248480796814,
        0.9893969297409058
      ],
      "min": [
        0.12459971755743027,
        0.004996828734874725
      ],
      "type": "VEC2"
    },
    {
      "bufferView": 0,
      "byteOffset": 18384,
      "componentType": 5125,
      "count": 1368,
      "type": "SCALAR"
    },
    {
      "bufferView": 2,
      "byteOffset": 34680,
      "componentType": 5126,
      "count": 17,
      "max": [
        5.3162078857421875,
        7.159243583679199,
        1.3121258020401
      ],
      "min": [
        4.712419509887695,
        2.5340895652770996,
        -1.3121258020401
      ],
      "type": "VEC3"
    },
    {
      "bufferView": 2,
      "byteOffset": 34884,
      "componentType": 5126,
      "count": 17,
      "max": [
        0.9982714653015137,
        -0.0408877357840538,
        0.3594004511833191
      ],
      "min": [
        0.8974332809448242,
        -0.25582218170166016,
        -0.3594003915786743
      ],
      "type": "VEC3"
    },
    {
      "bufferView": 1,
      "byteOffset": 11560,
      "componentType": 5126,
      "count": 17,
      "max": [
        0.15336203575134277,
        0.5276077389717102
      ],
      "min": [
        0.024913549423217773,
        0.3005489706993103
      ],
      "type": "VEC2"
    },
    {
      "bufferView": 0,
      "byteOffset": 23856,
      "componentType": 5125,
      "count": 48,
      "type": "SCALAR"
    }
  ],
  "asset": {
    "extras": {
      "author": "rahumbarger27 (https://sketchfab.com/rahumbarger27)",
      "license": "CC-BY-4.0 (http://creativecommons.org/licenses/by/4.0/)",
      "source": "https://sketchfab.com/3d-models/mug-97351bb3d87649a49cea2339e9d3aa88",
      "title": "Mug"
    },
    "generator": "Sketchfab-12.67.0",
    "version": "2.0"
  },
  "bufferViews": [
    {
      "buffer": 0,
      "byteLength": 24048,
      "name": "floatBufferViews",
      "target": 34963
    },
    {
      "buffer": 0,
      "byteLength": 11696,
      "byteOffset": 24048,
      "byteStride": 8,
      "name": "floatBufferViews",
      "target": 34962
    },
    {
      "buffer": 0,
      "byteLength": 35088,
      "byteOffset": 35744,
      "byteStride": 12,
      "name": "floatBufferViews",
      "target": 34962
    }
  ],
  "buffers": [
    {
      "byteLength": 70832,
      "uri": "scene.bin"
    }
  ],
  "images": [
    {
      "uri": "textures/blinn3_baseColor.png"
    },
    {
      "uri": "textures/blinn6_baseColor.png"
    }
  ],
  "materials": [
    {
      "doubleSided": true,
      "name": "blinn9",
      "pbrMetallicRoughness": {
        "metallicFactor": 0.0,
        "roughnessFactor": 0.0
      }
    },
    {
      "doubleSided": true,
      "name": "blinn3",
      "pbrMetallicRoughness": {
        "baseColorTexture": {
          "index": 0
        },
        "metallicFactor": 0.0,
        "roughnessFactor": 0.0
      }
    },
    {
      "doubleSided": true,
      "name": "blinn4",
      "pbrMetallicRoughness": {
        "baseColorTexture": {
          "index": 0
        },
        "metallicFactor": 0.0,
        "roughnessFactor": 0.0
      }
    },
    {
      "doubleSided": true,
      "name": "blinn11",
      "pbrMetallicRoughness": {
        "metallicFactor": 0.0,
        "roughnessFactor": 0.5838208549712183
      }
    },
    {
      "doubleSided": true,
      "name": "blinn8",
      "pbrMetallicRoughness": {
        "metallicFactor": 0.0,
        "roughnessFactor": 0.0
      }
    },
    {
      "doubleSided": true,
      "name": "blinn6",
      "pbrMetallicRoughness": {
        "baseColorTexture": {
          "index": 1
        },
        "metallicFactor": 0.0,
        "roughnessFactor": 0.0
      }
    },
    {
      "doubleSided": true,
      "name": "blinn7",
      "pbrMetallicRoughness": {
        "baseColorTexture": {
          "index": 1
        },
        "metallicFactor": 0.0,
        "roughnessFactor": 0.0
      }
    }
  ],
  "meshes": [
    {
      "name": "revolvedSurface1_blinn9_0",
      "primitives": [
        {
          "attributes": {
            "NORMAL": 1,
            "POSITION": 0,
            "TEXCOORD_0": 2
          },
          "indices": 3,
          "material": 0,
          "mode": 4
        }
      ]
    },
    {
      "name": "revolvedSurface1_blinn3_0",
      "primitives": [
        {
          "attributes": {
            "NORMAL": 5,
            "POSITION": 4,
            "TEXCOORD_0": 6
          },
          "indices": 7,
          "material": 1,
          "mode": 4
        }
      ]
    },
    {
      "name": "revolvedSurface1_blinn4_0",
      "primitives": [
        {
          "attributes": {
            "NORMAL": 9,
            "POSITION": 8,
            "TEXCOORD_0": 10
          },
          "indices": 11,
          "material": 2,
          "mode": 4
        }
      ]
    },
    {
      "name": "revolvedSurface1_blinn11_0",
      "primitives": [
        {
          "attributes": {
            "NORMAL": 13,
            "POSITION": 12,
            "TEXCOORD_0": 14
          },
          "indices": 15,
          "material": 3,
          "mode": 4
        }
      ]
    },
    {
      "name": "revolvedSurface1_blinn8_0",
      "primitives": [
        {
          "attributes": {
            "NORMAL": 17,
            "POSITION": 16,
            "TEXCOORD_0": 18
          },
          "indices": 19,
          "material": 4,
          "mode": 4
        }
      ]
    },
    {
      "name": "revolvedSurface1_blinn6_0",
      "primitives": [
        {
          "attributes": {
            "NORMAL": 21,
            "POSITION": 20,
            "TEXCOORD_0": 22
          },
          "indices": 23,
          "material": 5,
          "mode": 4
        }
      ]
    },
    {
      "name": "revolvedSurface1_blinn7_0",
      "primitives": [
        {
          "attributes": {
            "NORMAL": 25,
            "POSITION": 24,
            "TEXCOORD_0": 26
          },
          "indices": 27,
          "material": 6,
          "mode": 4
        }
      ]
    }
  ],
  "nodes": [
    {
      "children": [
        1
      ],
      "matrix": [
        1.0,
        0.0,
        0.0,
        0.0,
        0.0,
        2.220446049250313e-16,
        -1.0,
        0.0,
        0.0,
        1.0,
        2.220446049250313e-16,
        0.0,
        0.0,
        0.0,
        0.0,
        1.0
      ],
      "name": "Sketchfab_model"
    },
    {
      "children": [
        2
      ],
      "matrix": [
        1.0,
        0.0,
        0.0,
        0.0,
        0.0,
        0.0,
        1.0,
        0.0,
        0.0,
        -1.0,
        0.0,
        0.0,
        0.0,
        0.0,
        0.0,
        1.0
      ],
      "name": "mug.fbx"
    },
    {
      "children": [
        3
      ],
      "name": "RootNode"
    },
    {
      "children": [
        4,
        5,
        6,
        7,
        8,
        9,
        10
      ],
      "name": "revolvedSurface1"
    },
    {
      "mesh": 0,
      "name": "revolvedSurface1_blinn9_0"
    },
    {
      "mesh": 1,
      "name": "revolvedSurface1_blinn3_0"
    },
    {
      "mesh": 2,
      "name": "revolvedSurface1_blinn4_0"
    },
    {
      "mesh": 3,
      "name": "revolvedSurface1_blinn11_0"
    },
    {
      "mesh": 4,
      "name": "revolvedSurface1_blinn8_0"
    },
    {
      "mesh": 5,
      "name": "revolvedSurface1_blinn6_0"
    },
    {
      "mesh": 6,
      "name": "revolvedSurface1_blinn7_0"
    }
  ],
  "samplers": [
    {
      "magFilter": 9729,
      "minFilter": 9987,
      "wrapS": 10497,
      "wrapT": 10497
    }
  ],
  "scene": 0,
  "scenes": [
    {
      "name": "Sketchfab_Scene",
      "nodes": [
        0
      ]
    }
  ],
  "textures": [
    {
      "sampler": 0,
      "source": 0
    },
    {
      "sampler": 0,
      "source": 1
    }
  ]
}
