{
  "accessors": [
    {
      "bufferView": 2,
      "componentType": 5126,
      "count": 162,
      "max": [
        1.6165623664855957,
        1.0,
        1.6165626049041748
      ],
      "min": [
        -1.6165623664855957,
        -0.7220594882965088,
        -1.6165622472763062
      ],
      "type": "VEC3"
    },
    {
      "bufferView": 2,
      "byteOffset": 1944,
      "componentType": 5126,
      "count": 162,
      "max": [
        0.9605987668037415,
        -0.20885513722896576,
        0.935873806476593
      ],
      "min": [
        -0.9605987668037415,
        -1.0,
        -0.9469122290611267
      ],
      "type": "VEC3"
    },
    {
      "bufferView": 1,
      "componentType": 5126,
      "count": 162,
      "max": [
        1.0,
        1.0
      ],
      "min": [
        0.5,
        0.5
      ],
      "type": "VEC2"
    },
    {
      "bufferView": 0,
      "componentType": 5125,
      "count": 282,
      "type": "SCALAR"
    },
    {
      "bufferView": 2,
      "byteOffset": 3888,
      "componentType": 5126,
      "count": 10660,
      "max": [
        1.6528300046920776,
        2.4473824501037598,
        1.6448603868484497
      ],
      "min": [
        -1.6467417478561401,
        -0.1578630954027176,
        -1.7483866214752197
      ],
      "type": "VEC3"
    },
    {
      "bufferView": 2,
      "byteOffset": 131808,
      "componentType": 5126,
      "count": 10660,
      "max": [
        0.9985681176185608,
        0.921051561832428,
        0.9967511296272278
      ],
      "min": [
        -0.9980612993240356,
        -0.9999767541885376,
        -0.9998745918273926
      ],
      "type": "VEC3"
    },
    {
      "bufferView": 1,
      "byteOffset": 1296,
      "componentType": 5126,
      "count": 10660,
      "max": [
        1.0000001192092896,
        1.0000001192092896
      ],
      "min": [
        0.0,
        0.0
      ],
      "type": "VEC2"
    },
    {
      "bufferView": 0,
      "byteOffset": 1128,
      "componentType": 5125,
      "count": 13386,
      "type": "SCALAR"
    },
    {
      "bufferView": 2,
      "byteOffset": 259728,
      "componentType": 5126,
      "count": 1152,
      "max": [
        1.097629189491272,
        1.9631041288375854,
        1.3900030851364136
      ],
      "min": [
        -1.6575502157211304,
        1.2274469137191772,
        -1.0309085845947266
      ],
      "type": "VEC3"
    },
    {
      "bufferView": 2,
      "byteOffset": 273552,
      "componentType": 5126,
      "count": 1152,
      "max": [
        0.9957626461982727,
        0.9982719421386719,
        0.9910133481025696
      ],
      "min": [
        -0.9927502870559692,
        -0.9945069551467896,
        -0.9914475083351135
      ],
      "type": "VEC3"
    },
    {
      "bufferView": 1,
      "byteOffset": 86576,
      "componentType": 5126,
      "count": 1152,
      "max": [
        0.8750001192092896,
        1.0000001192092896
      ],
      "min": [
        0.1250000149011612,
        0.0
      ],
      "type": "VEC2"
    },
    {
      "bufferView": 0,
      "byteOffset": 54672,
      "componentType": 5125,
      "count": 1728,
      "type": "SCALAR"
    }
  ],
  "asset": {
    "extras": {
      "author": "Christian Walter (https://sketchfab.com/chrisworld)",
      "license": "CC-BY-4.0 (http://creativecommons.org/licenses/by/4.0/)",
      "source": "https://sketchfab.com/3d-models/no12-cake-cupcake-454783f25d8c46ac87969c8f161b1a16",
      "title": "№12 - cake: Cupcake"
    },
    "generator": "Sketchfab-12.65.0",
    "version": "2.0"
  },
  "bufferViews": [
    {
      "buffer": 0,
      "byteLength": 61584,
      "name": "floatBufferViews",
      "target": 34963
    },
    {
      "buffer": 0,
      "byteLength": 95792,
      "byteOffset": 61584,
      "byteStride": 8,
      "name": "floatBufferViews",
      "target": 34962
    },
    {
      "buffer": 0,
      "byteLength": 287376,
      "byteOffset": 157376,
      "byteStride": 12,
      "name": "floatBufferViews",
      "target": 34962
    }
  ],
  "buffers": [
    {
      "byteLength": 444752,
      "uri": "scene.bin"
    }
  ],
  "materials": [
    {
      "doubleSided": true,
      "name": "Material.001",
      "pbrMetallicRoughness": {
        "baseColorFactor": [
          0.57047,
          0.500779,
          0.552551,
          1.0
        ],
        "metallicFactor": 0.269504,
        "roughnessFactor": 0.6560279999999999
      }
    },
    {
      "doubleSided": true,
      "name": "Material.002",
      "pbrMetallicRoughness": {
        "baseColorFactor": [
          0.384374,
          0.209454,
          0.0885006,
          1.0
        ],
        "metallicFactor": 0.0,
        "roughnessFactor": 0.663121
      }
    },
    {
      "doubleSided": true,
      "name": "Material.003",
      "pbrMetallicRoughness": {
        "baseColorFactor": [
          0.0290993,
          0.0115814,
          0.00759594,
          1.0
        ],
        "metallicFactor": 0.0,
        "roughnessFactor": 0.485816
      }
    }
  ],
  "meshes": [
    {
      "name": "Object_0",
      "primitives": [
        {
          "attributes": {
            "NORMAL": 1,
            "POSITION": 0,
            "TEXCOORD_0": 2
          },
          "indices": 3,
          "material": 0,
          "mode": 4
        }
      ]
    },
    {
      "name": "Object_1",
      "primitives": [
        {
          "attributes": {
            "NORMAL": 5,
            "POSITION": 4,
            "TEXCOORD_0": 6
          },
          "indices": 7,
          "material": 1,
          "mode": 4
        }
      ]
    },
    {
      "name": "Object_2",
      "primitives": [
        {
          "attributes": {
            "NORMAL": 9,
            "POSITION": 8,
            "TEXCOORD_0": 10
          },
          "indices": 11,
          "material": 2,
          "mode": 4
        }
      ]
    }
  ],
  "nodes": [
    {
      "children": [
        1
      ],
      "matrix": [
        0.3333333432674408,
        0.0,
        0.0,
        0.0,
        0.0,
        7.401487051415874e-17,
        -0.3333333432674408,
        0.0,
        0.0,
        0.3333333432674408,
        7.401487051415874e-17,
        0.0,
        0.0,
        0.0,
        0.0,
        1.0
      ],
      "name": "Sketchfab_model"
    },
    {
      "children": [
        2
      ],
      "name": "root"
    },
    {
      "children": [
        3,
        5,
        7
      ],
      "matrix": [
        1.0,
        0.0,
        0.0,
        0.0,
        0.0,
        2.220446049250313e-16,
        1.0,
        0.0,
        0.0,
        -1.0,
        2.220446049250313e-16,
        0.0,
        0.0,
        0.0,
        0.0,
        1.0
      ],
      "name": "GLTF_SceneRootNode"
    },
    {
      "children": [
        4
      ],
      "matrix": [
        1.2560741901397705,
        0.0,
        0.0,
        0.0,
        0.0,
        1.2560741901397705,
        0.0,
        0.0,
        0.0,
        0.0,
        1.2560741901397705,
        0.0,
        0.0,
        0.0,
        0.0,
        1.0
      ],
      "name": "paper_2"
    },
    {
      "mesh": 0,
      "name": "Object_4"
    },
    {
      "children": [
        6
      ],
      "matrix": [
        1.3520690202713013,
        0.0,
        0.0,
        0.0,
        0.0,
        1.270058274269104,
        0.0,
        0.0,
        0.0,
        0.0,
        1.2740654945373535,
        0.0,
        0.0,
        0.06981472671031952,
        0.0,
        1.0
      ],
      "name": "cake_main_3"
    },
    {
      "mesh": 1,
      "name": "Object_6"
    },
    {
      "children": [
        8
      ],
      "matrix": [
        1.0,
        0.0,
        0.0,
        0.0,
        0.0,
        1.0,
        0.0,
        0.0,
        0.0,
        0.0,
        1.0,
        0.0,
        0.13957133889198303,
        1.418217420578003,
        -0.03208732604980469,
        1.0
      ],
      "name": "schoki_4"
    },
    {
      "mesh": 2,
      "name": "Object_8"
    }
  ],
  "scene": 0,
  "scenes": [
    {
      "name": "Sketchfab_Scene",
      "nodes": [
        0
      ]
    }
  ]
}
