{
  "accessors": [
    {
      "bufferView": 2,
      "componentType": 5126,
      "count": 65532,
      "max": [
        92.33721923828125,
        -326.3842468261719,
        129.61734008789063
      ],
      "min": [
        -68.02954864501953,
        -398.072998046875,
        -17.223981857299805
      ],
      "type": "VEC3"
    },
    {
      "bufferView": 2,
      "byteOffset": 786384,
      "componentType": 5126,
      "count": 65532,
      "max": [
        0.9999786615371704,
        0.9999998807907104,
        0.9998789429664612
      ],
      "min": [
        -0.9916679263114929,
        -0.9999897480010986,
        -0.9999929666519165
      ],
      "type": "VEC3"
    },
    {
      "bufferView": 1,
      "componentType": 5126,
      "count": 65532,
      "max": [
        0.9801200032234192,
        0.7308400273323059
      ],
      "min": [
        0.007430000230669975,
        0.0018599999602884054
      ],
      "type": "VEC2"
    },
    {
      "bufferView": 0,
      "componentType": 5125,
      "count": 319176,
      "type": "SCALAR"
    },
    {
      "bufferView": 2,
      "byteOffset": 1572768,
      "componentType": 5126,
      "count": 65532,
      "max": [
        91.4517822265625,
        -326.4446716308594,
        129.55108642578125
      ],
      "min": [
        -61.15818405151367,
        -399.7593688964844,
        -16.37116813659668
      ],
      "type": "VEC3"
    },
    {
      "bufferView": 2,
      "byteOffset": 2359152,
      "componentType": 5126,
      "count": 65532,
      "max": [
        0.9564172625541687,
        0.9999896883964539,
        0.9985960721969604
      ],
      "min": [
        -0.9085531234741211,
        -0.9999822378158569,
        -0.9997186660766602
      ],
      "type": "VEC3"
    },
    {
      "bufferView": 1,
      "byteOffset": 524256,
      "componentType": 5126,
      "count": 65532,
      "max": [
        0.9916899800300598,
        0.7331100106239319
      ],
      "min": [
        0.0012700000079348683,
        0.019899999722838402
      ],
      "type": "VEC2"
    },
    {
      "bufferView": 0,
      "byteOffset": 1276704,
      "componentType": 5125,
      "count": 334089,
      "type": "SCALAR"
    },
    {
      "bufferView": 2,
      "byteOffset": 3145536,
      "componentType": 5126,
      "count": 65532,
      "max": [
        90.33902740478516,
        -328.49249267578125,
        129.7178192138672
      ],
      "min": [
        -68.59721374511719,
        -399.7715759277344,
        -12.675286293029785
      ],
      "type": "VEC3"
    },
    {
      "bufferView": 2,
      "byteOffset": 3931920,
      "componentType": 5126,
      "count": 65532,
      "max": [
        0.9979013800621033,
        0.9999896883964539,
        0.9968687891960144
      ],
      "min": [
        -0.9968771934509277,
        -0.9999851584434509,
        -0.9997186660766602
      ],
      "type": "VEC3"
    },
    {
      "bufferView": 1,
      "byteOffset": 1048512,
      "componentType": 5126,
      "count": 65532,
      "max": [
        0.989300012588501,
        0.7326899766921997
      ],
      "min": [
        0.0009800000116229057,
        0.0009800000116229057
      ],
      "type": "VEC2"
    },
    {
      "bufferView": 0,
      "byteOffset": 2613060,
      "componentType": 5125,
      "count": 315423,
      "type": "SCALAR"
    },
    {
      "bufferView": 2,
      "byteOffset": 4718304,
      "componentType": 5126,
      "count": 65532,
      "max": [
        92.24543762207031,
        -327.0373229980469,
        129.66848754882813
      ],
      "min": [
        -68.19120025634766,
        -398.8451843261719,
        -16.200105667114258
      ],
      "type": "VEC3"
    },
    {
      "bufferView": 2,
      "byteOffset": 5504688,
      "componentType": 5126,
      "count": 65532,
      "max": [
        0.9996785521507263,
        0.9999930262565613,
        0.9999616742134094
      ],
      "min": [
        -0.9997847676277161,
        -0.9999324679374695,
        -0.9982365965843201
      ],
      "type": "VEC3"
    },
    {
      "bufferView": 1,
      "byteOffset": 1572768,
      "componentType": 5126,
      "count": 65532,
      "max": [
        0.9918299913406372,
        0.7325599789619446
      ],
      "min": [
        0.0009800000116229057,
        0.0002899999963119626
      ],
      "type": "VEC2"
    },
    {
      "bufferView": 0,
      "byteOffset": 3874752,
      "componentType": 5125,
      "count": 302892,
      "type": "SCALAR"
    },
    {
      "bufferView": 2,
      "byteOffset": 6291072,
      "componentType": 5126,
      "count": 40207,
      "max": [
        91.91104125976563,
        -326.3842468261719,
        129.4820098876953
      ],
      "min": [
        -68.13336181640625,
        -399.7159423828125,
        -17.200441360473633
      ],
      "type": "VEC3"
    },
    {
      "bufferView": 2,
      "byteOffset": 6773556,
      "componentType": 5126,
      "count": 40207,
      "max": [
        0.9996804594993591,
        0.9999873638153076,
        0.9992445707321167
      ],
      "min": [
        -0.9923031330108643,
        -0.9997245669364929,
        -0.9989557266235352
      ],
      "type": "VEC3"
    },
    {
      "bufferView": 1,
      "byteOffset": 2097024,
      "componentType": 5126,
      "count": 40207,
      "max": [
        0.991159975528717,
        0.733240008354187
      ],
      "min": [
        0.0003000000142492354,
        0.0003100000030826777
      ],
      "type": "VEC2"
    },
    {
      "bufferView": 0,
      "byteOffset": 5086320,
      "componentType": 5125,
      "count": 142158,
      "type": "SCALAR"
    },
    {
      "bufferView": 2,
      "byteOffset": 7256040,
      "componentType": 5126,
      "count": 46339,
      "max": [
        92.33721923828125,
        -326.406982421875,
        129.7178192138672
      ],
      "min": [
        -68.6395034790039,
        -396.4403381347656,
        -17.223981857299805
      ],
      "type": "VEC3"
    },
    {
      "bufferView": 2,
      "byteOffset": 7812108,
      "componentType": 5126,
      "count": 46339,
      "max": [
        0.9996826648712158,
        0.9995969533920288,
        0.9998416900634766
      ],
      "min": [
        -0.9999498128890991,
        -0.9999927282333374,
        -0.9998551607131958
      ],
      "type": "VEC3"
    },
    {
      "bufferView": 1,
      "byteOffset": 2418680,
      "componentType": 5126,
      "count": 46339,
      "max": [
        0.0,
        0.0
      ],
      "min": [
        0.0,
        0.0
      ],
      "type": "VEC2"
    },
    {
      "bufferView": 0,
      "byteOffset": 5654952,
      "componentType": 5125,
      "count": 244674,
      "type": "SCALAR"
    }
  ],
  "asset": {
    "extras": {
      "author": "IUPUI University Library (https://sketchfab.com/iupuiul)",
      "license": "CC-BY-4.0 (http://creativecommons.org/licenses/by/4.0/)",
      "source": "https://sketchfab.com/3d-models/angel-plate-hand-painted-by-caroline-harrison-8d36a0f5d31644969de31b6371bac5b8",
      "title": "Angel Plate Hand Painted by Caroline Harrison"
    },
    "generator": "Sketchfab-12.68.0",
    "version": "2.0"
  },
  "bufferViews": [
    {
      "buffer": 0,
      "byteLength": 6633648,
      "name": "floatBufferViews",
      "target": 34963
    },
    {
      "buffer": 0,
      "byteLength": 2789392,
      "byteOffset": 6633648,
      "byteStride": 8,
      "name": "floatBufferViews",
      "target": 34962
    },
    {
      "buffer": 0,
      "byteLength": 8368176,
      "byteOffset": 9423040,
      "byteStride": 12,
      "name": "floatBufferViews",
      "target": 34962
    }
  ],
  "buffers": [
    {
      "byteLength": 17791216,
      "uri": "scene.bin"
    }
  ],
  "images": [
    {
      "uri": "textures/defaultMat_baseColor.png"
    }
  ],
  "materials": [
    {
      "doubleSided": true,
      "name": "defaultMat",
      "pbrMetallicRoughness": {
        "baseColorTexture": {
          "index": 0
        },
        "metallicFactor": 0.0,
        "roughnessFactor": 0.4738948170731707
      }
    }
  ],
  "meshes": [
    {
      "name": "Object_0",
      "primitives": [
        {
          "attributes": {
            "NORMAL": 1,
            "POSITION": 0,
            "TEXCOORD_0": 2
          },
          "indices": 3,
          "material": 0,
          "mode": 4
        }
      ]
    },
    {
      "name": "Object_1",
      "primitives": [
        {
          "attributes": {
            "NORMAL": 5,
            "POSITION": 4,
            "TEXCOORD_0": 6
          },
          "indices": 7,
          "material": 0,
          "mode": 4
        }
      ]
    },
    {
      "name": "Object_2",
      "primitives": [
        {
          "attributes": {
            "NORMAL": 9,
            "POSITION": 8,
            "TEXCOORD_0": 10
          },
          "indices": 11,
          "material": 0,
          "mode": 4
        }
      ]
    },
    {
      "name": "Object_3",
      "primitives": [
        {
          "attributes": {
            "NORMAL": 13,
            "POSITION": 12,
            "TEXCOORD_0": 14
          },
          "indices": 15,
          "material": 0,
          "mode": 4
        }
      ]
    },
    {
      "name": "Object_4",
      "primitives": [
        {
          "attributes": {
            "NORMAL": 17,
            "POSITION": 16,
            "TEXCOORD_0": 18
          },
          "indices": 19,
          "material": 0,
          "mode": 4
        }
      ]
    },
    {
      "name": "Object_5",
      "primitives": [
        {
          "attributes": {
            "NORMAL": 21,
            "POSITION": 20,
            "TEXCOORD_0": 22
          },
          "indices": 23,
          "material": 0,
          "mode": 4
        }
      ]
    }
  ],
  "nodes": [
    {
      "children": [
        1
      ],
      "matrix": [
        -0.9961494207382202,
        -1.9467060441725066e-17,
        0.08767184615135193,
        0.0,
        0.08767184615135193,
        -2.211896045741169e-16,
        0.9961494207382202,
        0.0,
        0.0,
        1.0,
        2.220446049250313e-16,
        0.0,
        55.485809326171875,
        -1.6069819628629356e-13,
        723.7203369140625,
        1.0
      ],
      "name": "Sketchfab_model"
    },
    {
      "children": [
        2,
        3,
        4,
        5,
        6,
        7
      ],
      "name": "BHPS_angelLacePlate_O_merged_1mm.OBJ.cleaner.materialmerger.gles"
    },
    {
      "mesh": 0,
      "name": "Object_2"
    },
    {
      "mesh": 1,
      "name": "Object_3"
    },
    {
      "mesh": 2,
      "name": "Object_4"
    },
    {
      "mesh": 3,
      "name": "Object_5"
    },
    {
      "mesh": 4,
      "name": "Object_6"
    },
    {
      "mesh": 5,
      "name": "Object_7"
    }
  ],
  "samplers": [
    {
      "magFilter": 9729,
      "minFilter": 9987,
      "wrapS": 10497,
      "wrapT": 10497
    }
  ],
  "scene": 0,
  "scenes": [
    {
      "name": "Sketchfab_Scene",
      "nodes": [
        0
      ]
    }
  ],
  "textures": [
    {
      "sampler": 0,
      "source": 0
    }
  ]
}
