{
  "accessors": [
    {
      "bufferView": 2,
      "componentType": 5126,
      "count": 65532,
      "max": [
        -20.210054397583008,
        -422.4408874511719,
        63.5237922668457
      ],
      "min": [
        -196.83045959472656,
        -464.97900390625,
        -109.67459106445313
      ],
      "type": "VEC3"
    },
    {
      "bufferView": 2,
      "byteOffset": 786384,
      "componentType": 5126,
      "count": 65532,
      "max": [
        0.9999948740005493,
        0.9979039430618286,
        0.9979454278945923
      ],
      "min": [
        -0.9997670650482178,
        -0.9999975562095642,
        -0.9993102550506592
      ],
      "type": "VEC3"
    },
    {
      "bufferView": 3,
      "componentType": 5126,
      "count": 65532,
      "max": [
        0.9176470637321472,
        0.9176470637321472,
        0.8980392217636108,
        1.0
      ],
      "min": [
        0.0,
        0.0,
        0.0,
        1.0
      ],
      "type": "VEC4"
    },
    {
      "bufferView": 1,
      "componentType": 5126,
      "count": 65532,
      "max": [
        0.9966400265693665,
        0.6980800032615662
      ],
      "min": [
        0.0009800000116229057,
        0.0009800000116229057
      ],
      "type": "VEC2"
    },
    {
      "bufferView": 0,
      "componentType": 5125,
      "count": 335154,
      "type": "SCALAR"
    },
    {
      "bufferView": 2,
      "byteOffset": 1572768,
      "componentType": 5126,
      "count": 65532,
      "max": [
        -21.452011108398438,
        -416.0733947753906,
        63.34980392456055
      ],
      "min": [
        -196.2506561279297,
        -465.5690612792969,
        -107.25299835205078
      ],
      "type": "VEC3"
    },
    {
      "bufferView": 2,
      "byteOffset": 2359152,
      "componentType": 5126,
      "count": 65532,
      "max": [
        0.9463142156600952,
        0.9999032616615295,
        0.9681256413459778
      ],
      "min": [
        -0.9881777167320251,
        -0.9999637603759766,
        -0.9702182412147522
      ],
      "type": "VEC3"
    },
    {
      "bufferView": 3,
      "byteOffset": 1048512,
      "componentType": 5126,
      "count": 65532,
      "max": [
        0.9960784316062927,
        0.9960784316062927,
        0.9960784316062927,
        1.0
      ],
      "min": [
        0.0,
        0.0,
        0.0,
        1.0
      ],
      "type": "VEC4"
    },
    {
      "bufferView": 1,
      "byteOffset": 524256,
      "componentType": 5126,
      "count": 65532,
      "max": [
        0.9972599744796753,
        0.6883400082588196
      ],
      "min": [
        0.012760000303387642,
        0.0009899999713525176
      ],
      "type": "VEC2"
    },
    {
      "bufferView": 0,
      "byteOffset": 1340616,
      "componentType": 5125,
      "count": 330852,
      "type": "SCALAR"
    },
    {
      "bufferView": 2,
      "byteOffset": 3145536,
      "componentType": 5126,
      "count": 65532,
      "max": [
        -20.388877868652344,
        -415.6986999511719,
        63.25222396850586
      ],
      "min": [
        -196.57032775878906,
        -464.8442077636719,
        -104.12866973876953
      ],
      "type": "VEC3"
    },
    {
      "bufferView": 2,
      "byteOffset": 3931920,
      "componentType": 5126,
      "count": 65532,
      "max": [
        0.982905924320221,
        0.9999902248382568,
        0.9999982118606567
      ],
      "min": [
        -0.9772506952285767,
        -0.9998101592063904,
        -0.9433507919311523
      ],
      "type": "VEC3"
    },
    {
      "bufferView": 3,
      "byteOffset": 2097024,
      "componentType": 5126,
      "count": 65532,
      "max": [
        0.9960784316062927,
        0.9960784316062927,
        0.9921568632125854,
        1.0
      ],
      "min": [
        0.0,
        0.0,
        0.0,
        1.0
      ],
      "type": "VEC4"
    },
    {
      "bufferView": 1,
      "byteOffset": 1048512,
      "componentType": 5126,
      "count": 65532,
      "max": [
        0.9939200282096863,
        0.6900100111961365
      ],
      "min": [
        0.002630000002682209,
        0.004379999823868275
      ],
      "type": "VEC2"
    },
    {
      "bufferView": 0,
      "byteOffset": 2664024,
      "componentType": 5125,
      "count": 331533,
      "type": "SCALAR"
    },
    {
      "bufferView": 2,
      "byteOffset": 4718304,
      "componentType": 5126,
      "count": 65532,
      "max": [
        -22.272077560424805,
        -415.5455627441406,
        63.26367950439453
      ],
      "min": [
        -196.89825439453125,
        -464.2179260253906,
        -107.97765350341797
      ],
      "type": "VEC3"
    },
    {
      "bufferView": 2,
      "byteOffset": 5504688,
      "componentType": 5126,
      "count": 65532,
      "max": [
        0.9884326457977295,
        0.9999598860740662,
        0.9988258481025696
      ],
      "min": [
        -0.9980782270431519,
        -0.9999688267707825,
        -0.9014188647270203
      ],
      "type": "VEC3"
    },
    {
      "bufferView": 3,
      "byteOffset": 3145536,
      "componentType": 5126,
      "count": 65532,
      "max": [
        0.9960784316062927,
        0.9960784316062927,
        0.9921568632125854,
        1.0
      ],
      "min": [
        0.0,
        0.0,
        0.0,
        1.0
      ],
      "type": "VEC4"
    },
    {
      "bufferView": 1,
      "byteOffset": 1572768,
      "componentType": 5126,
      "count": 65532,
      "max": [
        0.9925600290298462,
        0.6893799901008606
      ],
      "min": [
        0.0009800000116229057,
        0.0017099999822676182
      ],
      "type": "VEC2"
    },
    {
      "bufferView": 0,
      "byteOffset": 3990156,
      "componentType": 5125,
      "count": 323865,
      "type": "SCALAR"
    },
    {
      "bufferView": 2,
      "byteOffset": 6291072,
      "componentType": 5126,
      "count": 65532,
      "max": [
        -20.283966064453125,
        -415.502685546875,
        62.55728530883789
      ],
      "min": [
        -196.49981689453125,
        -465.4012145996094,
        -108.72867584228516
      ],
      "type": "VEC3"
    },
    {
      "bufferView": 2,
      "byteOffset": 7077456,
      "componentType": 5126,
      "count": 65532,
      "max": [
        0.9904120564460754,
        0.9999634623527527,
        0.9961109757423401
      ],
      "min": [
        -0.9964932799339294,
        -0.9999969005584717,
        -0.9594440460205078
      ],
      "type": "VEC3"
    },
    {
      "bufferView": 3,
      "byteOffset": 4194048,
      "componentType": 5126,
      "count": 65532,
      "max": [
        0.9960784316062927,
        0.9960784316062927,
        0.9960784316062927,
        1.0
      ],
      "min": [
        0.0,
        0.0,
        0.0,
        1.0
      ],
      "type": "VEC4"
    },
    {
      "bufferView": 1,
      "byteOffset": 2097024,
      "componentType": 5126,
      "count": 65532,
      "max": [
        0.996399998664856,
        0.6893799901008606
      ],
      "min": [
        0.0009800000116229057,
        0.0009800000116229057
      ],
      "type": "VEC2"
    },
    {
      "bufferView": 0,
      "byteOffset": 5285616,
      "componentType": 5125,
      "count": 276465,
      "type": "SCALAR"
    },
    {
      "bufferView": 2,
      "byteOffset": 7863840,
      "componentType": 5126,
      "count": 13319,
      "max": [
        -20.29168701171875,
        -415.5751647949219,
        63.34862518310547
      ],
      "min": [
        -196.31399536132813,
        -465.3789978027344,
        -109.43199920654297
      ],
      "type": "VEC3"
    },
    {
      "bufferView": 2,
      "byteOffset": 8023668,
      "componentType": 5126,
      "count": 13319,
      "max": [
        0.9986520409584045,
        0.9987553358078003,
        0.9971384406089783
      ],
      "min": [
        -0.9713185429573059,
        -0.9999786615371704,
        -0.9976668953895569
      ],
      "type": "VEC3"
    },
    {
      "bufferView": 3,
      "byteOffset": 5242560,
      "componentType": 5126,
      "count": 13319,
      "max": [
        0.9921568632125854,
        0.9960784316062927,
        0.9882352948188782,
        1.0
      ],
      "min": [
        0.0,
        0.0,
        0.0,
        1.0
      ],
      "type": "VEC4"
    },
    {
      "bufferView": 1,
      "byteOffset": 2621280,
      "componentType": 5126,
      "count": 13319,
      "max": [
        0.996399998664856,
        0.6887800097465515
      ],
      "min": [
        0.0009800000116229057,
        0.0009800000116229057
      ],
      "type": "VEC2"
    },
    {
      "bufferView": 0,
      "byteOffset": 6391476,
      "componentType": 5125,
      "count": 36009,
      "type": "SCALAR"
    },
    {
      "bufferView": 2,
      "byteOffset": 8183496,
      "componentType": 5126,
      "count": 10485,
      "max": [
        -21.53293800354004,
        -429.664794921875,
        63.5237922668457
      ],
      "min": [
        -196.7950897216797,
        -465.55126953125,
        -109.63070678710938
      ],
      "type": "VEC3"
    },
    {
      "bufferView": 2,
      "byteOffset": 8309316,
      "componentType": 5126,
      "count": 10485,
      "max": [
        0.9901838898658752,
        0.9993129968643188,
        0.9997979402542114
      ],
      "min": [
        -0.9987475872039795,
        -0.9999411106109619,
        -0.9998752474784851
      ],
      "type": "VEC3"
    },
    {
      "bufferView": 3,
      "byteOffset": 5455664,
      "componentType": 5126,
      "count": 10485,
      "max": [
        0.8666666746139526,
        0.8666666746139526,
        0.8509804010391235,
        1.0
      ],
      "min": [
        0.0,
        0.0,
        0.0,
        1.0
      ],
      "type": "VEC4"
    },
    {
      "bufferView": 1,
      "byteOffset": 2727832,
      "componentType": 5126,
      "count": 10485,
      "max": [
        0.0,
        0.0
      ],
      "min": [
        0.0,
        0.0
      ],
      "type": "VEC2"
    },
    {
      "bufferView": 0,
      "byteOffset": 6535512,
      "componentType": 5125,
      "count": 54630,
      "type": "SCALAR"
    }
  ],
  "asset": {
    "extras": {
      "author": "IUPUI University Library (https://sketchfab.com/iupuiul)",
      "license": "CC-BY-4.0 (http://creativecommons.org/licenses/by/4.0/)",
      "source": "https://sketchfab.com/3d-models/putzki-plate-f04e42306b3342009862131291df3f25",
      "title": "Putzki Plate"
    },
    "generator": "Sketchfab-12.68.0",
    "version": "2.0"
  },
  "bufferViews": [
    {
      "buffer": 0,
      "byteLength": 6754032,
      "name": "floatBufferViews",
      "target": 34963
    },
    {
      "buffer": 0,
      "byteLength": 2811712,
      "byteOffset": 6754032,
      "byteStride": 8,
      "name": "floatBufferViews",
      "target": 34962
    },
    {
      "buffer": 0,
      "byteLength": 8435136,
      "byteOffset": 9565744,
      "byteStride": 12,
      "name": "floatBufferViews",
      "target": 34962
    },
    {
      "buffer": 0,
      "byteLength": 5623424,
      "byteOffset": 18000880,
      "byteStride": 16,
      "name": "floatBufferViews",
      "target": 34962
    }
  ],
  "buffers": [
    {
      "byteLength": 23624304,
      "uri": "scene.bin"
    }
  ],
  "materials": [
    {
      "doubleSided": true,
      "name": "defaultMat",
      "pbrMetallicRoughness": {
        "baseColorFactor": [
          0.8,
          0.8,
          0.8,
          1.0
        ],
        "metallicFactor": 0.0,
        "roughnessFactor": 0.3946265243902439
      }
    }
  ],
  "meshes": [
    {
      "name": "Object_0",
      "primitives": [
        {
          "attributes": {
            "COLOR_0": 2,
            "NORMAL": 1,
            "POSITION": 0,
            "TEXCOORD_0": 3
          },
          "indices": 4,
          "material": 0,
          "mode": 4
        }
      ]
    },
    {
      "name": "Object_1",
      "primitives": [
        {
          "attributes": {
            "COLOR_0": 7,
            "NORMAL": 6,
            "POSITION": 5,
            "TEXCOORD_0": 8
          },
          "indices": 9,
          "material": 0,
          "mode": 4
        }
      ]
    },
    {
      "name": "Object_2",
      "primitives": [
        {
          "attributes": {
            "COLOR_0": 12,
            "NORMAL": 11,
            "POSITION": 10,
            "TEXCOORD_0": 13
          },
          "indices": 14,
          "material": 0,
          "mode": 4
        }
      ]
    },
    {
      "name": "Object_3",
      "primitives": [
        {
          "attributes": {
            "COLOR_0": 17,
            "NORMAL": 16,
            "POSITION": 15,
            "TEXCOORD_0": 18
          },
          "indices": 19,
          "material": 0,
          "mode": 4
        }
      ]
    },
    {
      "name": "Object_4",
      "primitives": [
        {
          "attributes": {
            "COLOR_0": 22,
            "NORMAL": 21,
            "POSITION": 20,
            "TEXCOORD_0": 23
          },
          "indices": 24,
          "material": 0,
          "mode": 4
        }
      ]
    },
    {
      "name": "Object_5",
      "primitives": [
        {
          "attributes": {
            "COLOR_0": 27,
            "NORMAL": 26,
            "POSITION": 25,
            "TEXCOORD_0": 28
          },
          "indices": 29,
          "material": 0,
          "mode": 4
        }
      ]
    },
    {
      "name": "Object_6",
      "primitives": [
        {
          "attributes": {
            "COLOR_0": 32,
            "NORMAL": 31,
            "POSITION": 30,
            "TEXCOORD_0": 33
          },
          "indices": 34,
          "material": 0,
          "mode": 4
        }
      ]
    }
  ],
  "nodes": [
    {
      "children": [
        1
      ],
      "matrix": [
        0.9492053389549255,
        -6.986794940563439e-17,
        0.3146572709083557,
        0.0,
        0.29540982842445374,
        -0.34437954425811745,
        -0.8911429643630983,
        0.0,
        0.10836152732372284,
        0.9388304948806764,
        -0.32688692212104775,
        0.0,
        127.12516021728516,
        -153.12304687500003,
        74.56959533691403,
        1.0
      ],
      "name": "Sketchfab_model"
    },
    {
      "children": [
        2,
        3,
        4,
        5,
        6,
        7,
        8
      ],
      "name": "BHPS_putziPlate_O_merged_1mm.OBJ.cleaner.materialmerger.gles"
    },
    {
      "mesh": 0,
      "name": "Object_2"
    },
    {
      "mesh": 1,
      "name": "Object_3"
    },
    {
      "mesh": 2,
      "name": "Object_4"
    },
    {
      "mesh": 3,
      "name": "Object_5"
    },
    {
      "mesh": 4,
      "name": "Object_6"
    },
    {
      "mesh": 5,
      "name": "Object_7"
    },
    {
      "mesh": 6,
      "name": "Object_8"
    }
  ],
  "scene": 0,
  "scenes": [
    {
      "name": "Sketchfab_Scene",
      "nodes": [
        0
      ]
    }
  ]
}
