{
  "accessors": [
    {
      "bufferView": 2,
      "componentType": 5126,
      "count": 1525,
      "max": [
        0.6036255955696106,
        -0.8797428607940674,
        0.6036255955696106
      ],
      "min": [
        -0.6036255955696106,
        -1.0176962614059448,
        -0.6036255955696106
      ],
      "type": "VEC3"
    },
    {
      "bufferView": 2,
      "byteOffset": 18300,
      "componentType": 5126,
      "count": 1525,
      "max": [
        0.9930248856544495,
        1.0,
        0.9930250644683838
      ],
      "min": [
        -0.9930248856544495,
        -1.0,
        -0.9930250644683838
      ],
      "type": "VEC3"
    },
    {
      "bufferView": 3,
      "componentType": 5126,
      "count": 1525,
      "max": [
        1.0,
        0.9560776352882385,
        1.0,
        1.0
      ],
      "min": [
        -0.9999999403953552,
        -0.9308814406394958,
        -1.0,
        1.0
      ],
      "type": "VEC4"
    },
    {
      "bufferView": 1,
      "componentType": 5126,
      "count": 1525,
      "max": [
        0.9605265259742737,
        0.6878261566162109
      ],
      "min": [
        0.023549556732177734,
        0.006973683834075928
      ],
      "type": "VEC2"
    },
    {
      "bufferView": 0,
      "componentType": 5125,
      "count": 6432,
      "type": "SCALAR"
    },
    {
      "bufferView": 2,
      "byteOffset": 36600,
      "componentType": 5126,
      "count": 745,
      "max": [
        0.2666667401790619,
        -0.5627686977386475,
        0.26666632294654846
      ],
      "min": [
        -0.2666669487953186,
        -1.0156140327453613,
        -0.2674974799156189
      ],
      "type": "VEC3"
    },
    {
      "bufferView": 2,
      "byteOffset": 45540,
      "componentType": 5126,
      "count": 745,
      "max": [
        0.9992064237594604,
        1.0,
        0.9992064237594604
      ],
      "min": [
        -0.9968075752258301,
        -1.0,
        -0.9968628883361816
      ],
      "type": "VEC3"
    },
    {
      "bufferView": 3,
      "byteOffset": 24400,
      "componentType": 5126,
      "count": 745,
      "max": [
        1.0,
        0.9826174378395081,
        0.9999894499778748,
        1.0
      ],
      "min": [
        -1.0,
        -0.9999513626098633,
        -0.9999999403953552,
        -1.0
      ],
      "type": "VEC4"
    },
    {
      "bufferView": 1,
      "byteOffset": 12200,
      "componentType": 5126,
      "count": 745,
      "max": [
        0.9999023675918579,
        0.8924710750579834
      ],
      "min": [
        9.765475988388062e-05,
        9.763240814208984e-05
      ],
      "type": "VEC2"
    },
    {
      "bufferView": 0,
      "byteOffset": 25728,
      "componentType": 5125,
      "count": 3246,
      "type": "SCALAR"
    },
    {
      "bufferView": 2,
      "byteOffset": 54480,
      "componentType": 5126,
      "count": 936,
      "max": [
        0.5947501063346863,
        0.43841665983200073,
        0.04513735696673393
      ],
      "min": [
        0.22245413064956665,
        -0.0019249507458880544,
        -0.04513735696673393
      ],
      "type": "VEC3"
    },
    {
      "bufferView": 2,
      "byteOffset": 65712,
      "componentType": 5126,
      "count": 936,
      "max": [
        0.9998410940170288,
        0.9998413324356079,
        0.998471200466156
      ],
      "min": [
        -0.9999390244483948,
        -0.9999721050262451,
        -0.9984712600708008
      ],
      "type": "VEC3"
    },
    {
      "bufferView": 3,
      "byteOffset": 36320,
      "componentType": 5126,
      "count": 936,
      "max": [
        0.9999734163284302,
        0.9988337159156799,
        0.9999974966049194,
        1.0
      ],
      "min": [
        -0.9999926090240479,
        -0.9955143332481384,
        -0.9999908804893494,
        -1.0
      ],
      "type": "VEC4"
    },
    {
      "bufferView": 1,
      "byteOffset": 18160,
      "componentType": 5126,
      "count": 936,
      "max": [
        0.9990257024765015,
        0.7872437834739685
      ],
      "min": [
        9.766221046447754e-05,
        0.25950366258621216
      ],
      "type": "VEC2"
    },
    {
      "bufferView": 0,
      "byteOffset": 38712,
      "componentType": 5125,
      "count": 3432,
      "type": "SCALAR"
    }
  ],
  "asset": {
    "extras": {
      "author": "dendromery (https://sketchfab.com/dendromery)",
      "license": "CC-BY-4.0 (http://creativecommons.org/licenses/by/4.0/)",
      "source": "https://sketchfab.com/3d-models/cup-and-plate-d9a67048ec164c569fb274bae2a6cda0",
      "title": "Cup and plate"
    },
    "generator": "Sketchfab-12.68.0",
    "version": "2.0"
  },
  "bufferViews": [
    {
      "buffer": 0,
      "byteLength": 52440,
      "name": "floatBufferViews",
      "target": 34963
    },
    {
      "buffer": 0,
      "byteLength": 25648,
      "byteOffset": 52440,
      "byteStride": 8,
      "name": "floatBufferViews",
      "target": 34962
    },
    {
      "buffer": 0,
      "byteLength": 76944,
      "byteOffset": 78088,
      "byteStride": 12,
      "name": "floatBufferViews",
      "target": 34962
    },
    {
      "buffer": 0,
      "byteLength": 51296,
      "byteOffset": 155032,
      "byteStride": 16,
      "name": "floatBufferViews",
      "target": 34962
    }
  ],
  "buffers": [
    {
      "byteLength": 206328,
      "uri": "scene.bin"
    }
  ],
  "images": [
    {
      "uri": "textures/plate_baseColor.png"
    },
    {
      "uri": "textures/plate_metallicRoughness.png"
    },
    {
      "uri": "textures/plate_normal.png"
    },
    {
      "uri": "textures/material_baseColor.png"
    },
    {
      "uri": "textures/material_metallicRoughness.png"
    },
    {
      "uri": "textures/material_normal.png"
    }
  ],
  "materials": [
    {
      "doubleSided": true,
      "name": "plate",
      "normalTexture": {
        "index": 2
      },
      "pbrMetallicRoughness": {
        "baseColorTexture": {
          "index": 0
        },
        "metallicRoughnessTexture": {
          "index": 1
        }
      }
    },
    {
      "doubleSided": true,
      "name": "material",
      "normalTexture": {
        "index": 5
      },
      "pbrMetallicRoughness": {
        "baseColorTexture": {
          "index": 3
        },
        "metallicRoughnessTexture": {
          "index": 4
        }
      }
    }
  ],
  "meshes": [
    {
      "name": "pCylinder1_plate_0",
      "primitives": [
        {
          "attributes": {
            "NORMAL": 1,
            "POSITION": 0,
            "TANGENT": 2,
            "TEXCOORD_0": 3
          },
          "indices": 4,
          "material": 0,
          "mode": 4
        }
      ]
    },
    {
      "name": "pCylinder2_cup_0",
      "primitives": [
        {
          "attributes": {
            "NORMAL": 6,
            "POSITION": 5,
            "TANGENT": 7,
            "TEXCOORD_0": 8
          },
          "indices": 9,
          "material": 1,
          "mode": 4
        }
      ]
    },
    {
      "name": "pPlane1_cup_0",
      "primitives": [
        {
          "attributes": {
            "NORMAL": 11,
            "POSITION": 10,
            "TANGENT": 12,
            "TEXCOORD_0": 13
          },
          "indices": 14,
          "material": 1,
          "mode": 4
        }
      ]
    }
  ],
  "nodes": [
    {
      "children": [
        1
      ],
      "matrix": [
        1.0,
        0.0,
        0.0,
        0.0,
        0.0,
        2.220446049250313e-16,
        -1.0,
        0.0,
        0.0,
        1.0,
        2.220446049250313e-16,
        0.0,
        0.0,
        0.0,
        0.0,
        1.0
      ],
      "name": "Sketchfab_model"
    },
    {
      "children": [
        2
      ],
      "matrix": [
        0.009999999776482582,
        0.0,
        0.0,
        0.0,
        0.0,
        0.0,
        0.009999999776482582,
        0.0,
        0.0,
        -0.009999999776482582,
        0.0,
        0.0,
        0.0,
        0.0,
        0.0,
        1.0
      ],
      "name": "d0be49be11ac4830ade5fd5b5495c026.fbx"
    },
    {
      "children": [
        3,
        5,
        7
      ],
      "name": "RootNode"
    },
    {
      "children": [
        4
      ],
      "name": "pCylinder1"
    },
    {
      "mesh": 0,
      "name": "pCylinder1_plate_0"
    },
    {
      "children": [
        6
      ],
      "matrix": [
        1.2570451498031616,
        0.0,
        0.0,
        0.0,
        0.0,
        1.2570451498031616,
        0.0,
        0.0,
        0.0,
        0.0,
        1.2570451498031616,
        0.0,
        -2.2981625491524937e-08,
        0.30254605412483215,
        4.5963250983049875e-08,
        1.0
      ],
      "name": "pCylinder2"
    },
    {
      "mesh": 1,
      "name": "pCylinder2_cup_0"
    },
    {
      "children": [
        8
      ],
      "matrix": [
        0.8609676141572887,
        -0.033374302229877265,
        0.0,
        0.0,
        0.03450115887309498,
        0.8900374975941303,
        0.0,
        0.0,
        0.0,
        0.0,
        0.890705943107605,
        0.0,
        0.058510538190603256,
        -0.8280060291290283,
        0.0,
        1.0
      ],
      "name": "pPlane1"
    },
    {
      "mesh": 2,
      "name": "pPlane1_cup_0"
    }
  ],
  "samplers": [
    {
      "magFilter": 9729,
      "minFilter": 9987,
      "wrapS": 10497,
      "wrapT": 10497
    }
  ],
  "scene": 0,
  "scenes": [
    {
      "name": "Sketchfab_Scene",
      "nodes": [
        0
      ]
    }
  ],
  "textures": [
    {
      "sampler": 0,
      "source": 0
    },
    {
      "sampler": 0,
      "source": 1
    },
    {
      "sampler": 0,
      "source": 2
    },
    {
      "sampler": 0,
      "source": 3
    },
    {
      "sampler": 0,
      "source": 4
    },
    {
      "sampler": 0,
      "source": 5
    }
  ]
}
